<?xml version="1.0" encoding="UTF-8"?>
<!DOCTYPE svg PUBLIC "-//W3C//DTD SVG 1.1//EN" "http://www.w3.org/Graphics/SVG/1.1/DTD/svg11.dtd">
<svg xmlns="http://www.w3.org/2000/svg" version="1.1" width="1080px" height="500px" style="shape-rendering:geometricPrecision; text-rendering:geometricPrecision; image-rendering:optimizeQuality; fill-rule:evenodd; clip-rule:evenodd" xmlns:xlink="http://www.w3.org/1999/xlink">
<g><path style="opacity:0.977" fill="#f21d45" d="M 809.5,142.5 C 816.031,141.988 822.364,142.822 828.5,145C 836.821,152.107 839.321,160.941 836,171.5C 829.437,182.529 819.937,186.029 807.5,182C 802.026,180.526 798.526,177.026 797,171.5C 793.099,157.997 797.265,148.33 809.5,142.5 Z"/></g>
<g><path style="opacity:0.976" fill="#f21d45" d="M 420.5,350.5 C 420.5,349.167 419.833,348.5 418.5,348.5C 410.672,345 404.006,340 398.5,333.5C 386.767,317.764 381.433,299.931 382.5,280C 380.79,252.031 390.79,229.698 412.5,213C 430.186,202.143 449.186,199.143 469.5,204C 475.48,206.662 481.48,209.329 487.5,212C 490.659,216.159 494.159,219.992 498,223.5C 498.412,225.997 499.578,227.997 501.5,229.5C 502.333,201.839 502.833,174.173 503,146.5C 511.081,145.518 519.248,145.184 527.5,145.5C 527.5,214.5 527.5,283.5 527.5,352.5C 519.167,352.5 510.833,352.5 502.5,352.5C 502.831,344.804 502.497,337.138 501.5,329.5C 487.938,351.106 468.272,359.939 442.5,356C 434.885,355.112 427.552,353.279 420.5,350.5 Z M 444.5,225.5 C 468.623,222.672 486.457,231.672 498,252.5C 499.741,257.054 501.074,261.721 502,266.5C 505.968,287.469 501.134,305.969 487.5,322C 472.602,333.946 455.935,337.112 437.5,331.5C 428.509,327.268 421.009,321.268 415,313.5C 402.792,288.871 403.792,264.871 418,241.5C 421.647,238.687 425.147,235.687 428.5,232.5C 433.699,229.56 439.033,227.227 444.5,225.5 Z"/></g>
<g><path style="opacity:0.984" fill="#f21d45" d="M 566.5,145.5 C 612.5,145.5 658.5,145.5 704.5,145.5C 704.667,157.838 704.5,170.171 704,182.5C 696.073,196.029 687.406,209.029 678,221.5C 675.633,225.853 673.3,230.187 671,234.5C 666.667,240.167 662.333,245.833 658,251.5C 656,255.5 654,259.5 652,263.5C 647.667,269.167 643.333,274.833 639,280.5C 636.667,284.833 634.333,289.167 632,293.5C 624.159,302.531 617.659,312.531 612.5,323.5C 608.764,326.971 606.598,331.304 606,336.5C 605.501,341.823 605.334,347.156 605.5,352.5C 596.833,352.5 588.167,352.5 579.5,352.5C 579.152,344.078 579.819,335.744 581.5,327.5C 584.818,320.864 588.151,314.198 591.5,307.5C 610.913,279.009 630.08,250.342 649,221.5C 650.667,220.5 652,219.167 653,217.5C 659.179,207.132 665.846,197.132 673,187.5C 675.506,182.481 678.506,177.814 682,173.5C 682.483,172.552 682.649,171.552 682.5,170.5C 643.833,170.5 605.167,170.5 566.5,170.5C 566.5,162.167 566.5,153.833 566.5,145.5 Z"/></g>
<g><path style="opacity:0.979" fill="#f21d45" d="M 113.5,201.5 C 119.861,201.603 126.194,202.103 132.5,203C 139.675,205.838 146.508,209.338 153,213.5C 154.937,217.435 157.604,220.768 161,223.5C 166.039,234.989 168.872,246.989 169.5,259.5C 160.97,259.939 152.636,261.273 144.5,263.5C 144.22,255.808 142.886,248.308 140.5,241C 133.639,230.483 123.806,225.317 111,225.5C 103.542,225.189 96.7088,227.022 90.5,231C 87.7456,235.171 84.7456,239.171 81.5,243C 79.3663,248.668 77.8663,254.501 77,260.5C 76.5,284.164 76.3334,307.831 76.5,331.5C 88.8333,331.5 101.167,331.5 113.5,331.5C 113.5,338.5 113.5,345.5 113.5,352.5C 82.1667,352.5 50.8333,352.5 19.5,352.5C 19.5,345.5 19.5,338.5 19.5,331.5C 30.5,331.5 41.5,331.5 52.5,331.5C 52.5,297.167 52.5,262.833 52.5,228.5C 42.5,228.5 32.5,228.5 22.5,228.5C 22.5,221.167 22.5,213.833 22.5,206.5C 40.5,206.5 58.5,206.5 76.5,206.5C 76.5,212.833 76.5,219.167 76.5,225.5C 77.5,225.5 78.5,225.5 79.5,225.5C 79.4914,223.692 79.9914,222.025 81,220.5C 84.1467,217.683 86.98,214.516 89.5,211C 93.628,209.102 97.628,206.935 101.5,204.5C 105.588,203.311 109.588,202.311 113.5,201.5 Z"/></g>
<g><path style="opacity:0.981" fill="#f21d45" d="M 269.5,201.5 C 279.1,201.61 288.6,202.61 298,204.5C 304.231,207.135 310.398,209.969 316.5,213C 319.396,216.561 322.896,219.394 327,221.5C 328.937,225.435 331.604,228.768 335,231.5C 338.191,238.068 341.191,244.735 344,251.5C 345.996,263.078 346.829,274.744 346.5,286.5C 307.161,286.167 267.828,286.5 228.5,287.5C 229.102,301.86 234.436,314.027 244.5,324C 260.365,334.6 277.532,337.1 296,331.5C 301.505,328.887 306.671,325.72 311.5,322C 315.906,317.362 318.906,311.862 320.5,305.5C 321.333,305.167 322.167,304.833 323,304.5C 330.23,305.979 337.396,307.645 344.5,309.5C 338.435,329.069 326.101,343.236 307.5,352C 286.373,358.327 265.373,357.994 244.5,351C 240.411,347.905 236.077,345.239 231.5,343C 225.261,337.431 219.761,331.264 215,324.5C 204.299,302.055 201.466,278.555 206.5,254C 217.132,223.854 238.132,206.354 269.5,201.5 Z M 267.5,225.5 C 288.824,222.586 305.324,229.919 317,247.5C 319.442,253.27 320.942,259.27 321.5,265.5C 290.833,265.5 260.167,265.5 229.5,265.5C 232.982,243.353 245.649,230.019 267.5,225.5 Z"/></g>
<g><path style="opacity:0.975" fill="#f21d45" d="M 1000.5,201.5 C 1008.6,201.679 1016.6,202.679 1024.5,204.5C 1028.79,206.763 1033.12,208.929 1037.5,211C 1040.67,215.5 1044.5,219.333 1049,222.5C 1050.77,227.201 1052.93,231.701 1055.5,236C 1057.37,242.025 1058.53,248.192 1059,254.5C 1059.5,287.165 1059.67,319.832 1059.5,352.5C 1051.83,352.5 1044.17,352.5 1036.5,352.5C 1036.83,324.825 1036.5,297.159 1035.5,269.5C 1035.02,234.696 1017.68,220.529 983.5,227C 979.63,228.287 975.964,229.953 972.5,232C 970.043,235.158 967.21,237.991 964,240.5C 957.664,249.841 954.331,260.175 954,271.5C 953.5,298.498 953.333,325.498 953.5,352.5C 945.833,352.5 938.167,352.5 930.5,352.5C 930.5,303.833 930.5,255.167 930.5,206.5C 938.167,206.5 945.833,206.5 953.5,206.5C 953.5,214.5 953.5,222.5 953.5,230.5C 954.675,230.719 955.675,230.386 956.5,229.5C 966.016,212.075 980.682,202.742 1000.5,201.5 Z"/></g>
<g><path style="opacity:0.985" fill="#f21d45" d="M 759.5,206.5 C 782.5,206.5 805.5,206.5 828.5,206.5C 828.5,248.167 828.5,289.833 828.5,331.5C 844.5,331.5 860.5,331.5 876.5,331.5C 876.5,338.5 876.5,345.5 876.5,352.5C 835.5,352.5 794.5,352.5 753.5,352.5C 753.5,345.5 753.5,338.5 753.5,331.5C 770.833,331.5 788.167,331.5 805.5,331.5C 805.5,297.167 805.5,262.833 805.5,228.5C 790.167,228.5 774.833,228.5 759.5,228.5C 759.5,221.167 759.5,213.833 759.5,206.5 Z"/></g>
<g><path style="opacity:0.004" fill="#fe0000" d="M 418.5,348.5 C 419.833,348.5 420.5,349.167 420.5,350.5C 419.167,350.5 418.5,349.833 418.5,348.5 Z"/></g>
</svg>
